<?xml version="1.0" encoding="utf-8" standalone="no"?>
<!DOCTYPE svg PUBLIC "-//W3C//DTD SVG 1.1//EN"
  "http://www.w3.org/Graphics/SVG/1.1/DTD/svg11.dtd">
<svg xmlns:xlink="http://www.w3.org/1999/xlink" width="670.627188pt" height="386.108277pt" viewBox="0 0 670.627188 386.108277" xmlns="http://www.w3.org/2000/svg" version="1.1">
 <metadata>
  <rdf:RDF xmlns:dc="http://purl.org/dc/elements/1.1/" xmlns:cc="http://creativecommons.org/ns#" xmlns:rdf="http://www.w3.org/1999/02/22-rdf-syntax-ns#">
   <cc:Work>
    <dc:type rdf:resource="http://purl.org/dc/dcmitype/StillImage"/>
    <dc:date>2026-08-15T18:16:19.728282</dc:date>
    <dc:format>image/svg+xml</dc:format>
    <dc:creator>
     <cc:Agent>
      <dc:title>Matplotlib v3.10.0, https://matplotlib.org/</dc:title>
     </cc:Agent>
    </dc:creator>
   </cc:Work>
  </rdf:RDF>
 </metadata>
 <defs>
  <style type="text/css">*{stroke-linejoin: round; stroke-linecap: butt}</style>
 </defs>
 <g id="figure_1">
  <g id="patch_1">
   <path d="M 0 386.108277 
L 670.627188 386.108277 
L 670.627188 0 
L 0 0 
z
" style="fill: #ffffff"/>
  </g>
  <g id="axes_1">
   <g id="patch_2">
    <path d="M 38.467188 319.508937 
L 663.427188 319.508937 
L 663.427188 31.220937 
L 38.467188 31.220937 
z
" style="fill: #ffffff"/>
   </g>
   <g id="matplotlib.axis_1">
    <g id="xtick_1">
     <g id="line2d_1">
      <path d="M 81.825656 319.508937 
L 81.825656 31.220937 
" clip-path="url(#p11eaf890a0)" style="fill: none; stroke: #e9e3ea; stroke-width: 0.8; stroke-linecap: square"/>
     </g>
     <g id="line2d_2">
      <defs>
       <path id="mb708648a43" d="M 0 0 
L 0 3.5 
" style="stroke: #746b79; stroke-width: 0.8"/>
      </defs>
      <g>
       <use xlink:href="#mb708648a43" x="81.825656" y="319.508937" style="fill: #746b79; stroke: #746b79; stroke-width: 0.8"/>
      </g>
     </g>
     <g id="text_1">
      <text style="font-size: 10px; font-family: 'Arial', 'Microsoft YaHei', 'DejaVu Sans'; text-anchor: middle; fill: #746b79" x="81.825656" y="333.66675" transform="rotate(-0 81.825656 333.66675)">2007.5</text>
     </g>
    </g>
    <g id="xtick_2">
     <g id="line2d_3">
      <path d="M 156.581637 319.508937 
L 156.581637 31.220937 
" clip-path="url(#p11eaf890a0)" style="fill: none; stroke: #e9e3ea; stroke-width: 0.8; stroke-linecap: square"/>
     </g>
     <g id="line2d_4">
      <g>
       <use xlink:href="#mb708648a43" x="156.581637" y="319.508937" style="fill: #746b79; stroke: #746b79; stroke-width: 0.8"/>
      </g>
     </g>
     <g id="text_2">
      <text style="font-size: 10px; font-family: 'Arial', 'Microsoft YaHei', 'DejaVu Sans'; text-anchor: middle; fill: #746b79" x="156.581637" y="333.66675" transform="rotate(-0 156.581637 333.66675)">2010.0</text>
     </g>
    </g>
    <g id="xtick_3">
     <g id="line2d_5">
      <path d="M 231.337618 319.508937 
L 231.337618 31.220937 
" clip-path="url(#p11eaf890a0)" style="fill: none; stroke: #e9e3ea; stroke-width: 0.8; stroke-linecap: square"/>
     </g>
     <g id="line2d_6">
      <g>
       <use xlink:href="#mb708648a43" x="231.337618" y="319.508937" style="fill: #746b79; stroke: #746b79; stroke-width: 0.8"/>
      </g>
     </g>
     <g id="text_3">
      <text style="font-size: 10px; font-family: 'Arial', 'Microsoft YaHei', 'DejaVu Sans'; text-anchor: middle; fill: #746b79" x="231.337618" y="333.66675" transform="rotate(-0 231.337618 333.66675)">2012.5</text>
     </g>
    </g>
    <g id="xtick_4">
     <g id="line2d_7">
      <path d="M 306.093599 319.508937 
L 306.093599 31.220937 
" clip-path="url(#p11eaf890a0)" style="fill: none; stroke: #e9e3ea; stroke-width: 0.8; stroke-linecap: square"/>
     </g>
     <g id="line2d_8">
      <g>
       <use xlink:href="#mb708648a43" x="306.093599" y="319.508937" style="fill: #746b79; stroke: #746b79; stroke-width: 0.8"/>
      </g>
     </g>
     <g id="text_4">
      <text style="font-size: 10px; font-family: 'Arial', 'Microsoft YaHei', 'DejaVu Sans'; text-anchor: middle; fill: #746b79" x="306.093599" y="333.66675" transform="rotate(-0 306.093599 333.66675)">2015.0</text>
     </g>
    </g>
    <g id="xtick_5">
     <g id="line2d_9">
      <path d="M 380.84958 319.508937 
L 380.84958 31.220937 
" clip-path="url(#p11eaf890a0)" style="fill: none; stroke: #e9e3ea; stroke-width: 0.8; stroke-linecap: square"/>
     </g>
     <g id="line2d_10">
      <g>
       <use xlink:href="#mb708648a43" x="380.84958" y="319.508937" style="fill: #746b79; stroke: #746b79; stroke-width: 0.8"/>
      </g>
     </g>
     <g id="text_5">
      <text style="font-size: 10px; font-family: 'Arial', 'Microsoft YaHei', 'DejaVu Sans'; text-anchor: middle; fill: #746b79" x="380.84958" y="333.66675" transform="rotate(-0 380.84958 333.66675)">2017.5</text>
     </g>
    </g>
    <g id="xtick_6">
     <g id="line2d_11">
      <path d="M 455.605561 319.508937 
L 455.605561 31.220937 
" clip-path="url(#p11eaf890a0)" style="fill: none; stroke: #e9e3ea; stroke-width: 0.8; stroke-linecap: square"/>
     </g>
     <g id="line2d_12">
      <g>
       <use xlink:href="#mb708648a43" x="455.605561" y="319.508937" style="fill: #746b79; stroke: #746b79; stroke-width: 0.8"/>
      </g>
     </g>
     <g id="text_6">
      <text style="font-size: 10px; font-family: 'Arial', 'Microsoft YaHei', 'DejaVu Sans'; text-anchor: middle; fill: #746b79" x="455.605561" y="333.66675" transform="rotate(-0 455.605561 333.66675)">2020.0</text>
     </g>
    </g>
    <g id="xtick_7">
     <g id="line2d_13">
      <path d="M 530.361542 319.508937 
L 530.361542 31.220937 
" clip-path="url(#p11eaf890a0)" style="fill: none; stroke: #e9e3ea; stroke-width: 0.8; stroke-linecap: square"/>
     </g>
     <g id="line2d_14">
      <g>
       <use xlink:href="#mb708648a43" x="530.361542" y="319.508937" style="fill: #746b79; stroke: #746b79; stroke-width: 0.8"/>
      </g>
     </g>
     <g id="text_7">
      <text style="font-size: 10px; font-family: 'Arial', 'Microsoft YaHei', 'DejaVu Sans'; text-anchor: middle; fill: #746b79" x="530.361542" y="333.66675" transform="rotate(-0 530.361542 333.66675)">2022.5</text>
     </g>
    </g>
    <g id="xtick_8">
     <g id="line2d_15">
      <path d="M 605.117522 319.508937 
L 605.117522 31.220937 
" clip-path="url(#p11eaf890a0)" style="fill: none; stroke: #e9e3ea; stroke-width: 0.8; stroke-linecap: square"/>
     </g>
     <g id="line2d_16">
      <g>
       <use xlink:href="#mb708648a43" x="605.117522" y="319.508937" style="fill: #746b79; stroke: #746b79; stroke-width: 0.8"/>
      </g>
     </g>
     <g id="text_8">
      <text style="font-size: 10px; font-family: 'Arial', 'Microsoft YaHei', 'DejaVu Sans'; text-anchor: middle; fill: #746b79" x="605.117522" y="333.66675" transform="rotate(-0 605.117522 333.66675)">2025.0</text>
     </g>
    </g>
    <g id="text_9">
     <text style="font-size: 10px; font-family: 'Arial', 'Microsoft YaHei', 'DejaVu Sans'; text-anchor: middle; fill: #24172a" x="350.947188" y="346.812062" transform="rotate(-0 350.947188 346.812062)">Publication year</text>
    </g>
   </g>
   <g id="matplotlib.axis_2">
    <g id="ytick_1">
     <g id="line2d_17">
      <path d="M 38.467188 306.404937 
L 663.427188 306.404937 
" clip-path="url(#p11eaf890a0)" style="fill: none; stroke: #e9e3ea; stroke-width: 0.8; stroke-linecap: square"/>
     </g>
     <g id="line2d_18">
      <defs>
       <path id="m90319a0981" d="M 0 0 
L -3.5 0 
" style="stroke: #24172a; stroke-width: 0.8"/>
      </defs>
      <g>
       <use xlink:href="#m90319a0981" x="38.467188" y="306.404937" style="fill: #24172a; stroke: #24172a; stroke-width: 0.8"/>
      </g>
     </g>
     <g id="text_10">
      <text style="font-size: 10px; font-family: 'Arial', 'Microsoft YaHei', 'DejaVu Sans'; text-anchor: end; fill: #24172a" x="31.467188" y="309.983844" transform="rotate(-0 31.467188 309.983844)">0</text>
     </g>
    </g>
    <g id="ytick_2">
     <g id="line2d_19">
      <path d="M 38.467188 250.643235 
L 663.427188 250.643235 
" clip-path="url(#p11eaf890a0)" style="fill: none; stroke: #e9e3ea; stroke-width: 0.8; stroke-linecap: square"/>
     </g>
     <g id="line2d_20">
      <g>
       <use xlink:href="#m90319a0981" x="38.467188" y="250.643235" style="fill: #24172a; stroke: #24172a; stroke-width: 0.8"/>
      </g>
     </g>
     <g id="text_11">
      <text style="font-size: 10px; font-family: 'Arial', 'Microsoft YaHei', 'DejaVu Sans'; text-anchor: end; fill: #24172a" x="31.467188" y="254.222142" transform="rotate(-0 31.467188 254.222142)">10</text>
     </g>
    </g>
    <g id="ytick_3">
     <g id="line2d_21">
      <path d="M 38.467188 194.881533 
L 663.427188 194.881533 
" clip-path="url(#p11eaf890a0)" style="fill: none; stroke: #e9e3ea; stroke-width: 0.8; stroke-linecap: square"/>
     </g>
     <g id="line2d_22">
      <g>
       <use xlink:href="#m90319a0981" x="38.467188" y="194.881533" style="fill: #24172a; stroke: #24172a; stroke-width: 0.8"/>
      </g>
     </g>
     <g id="text_12">
      <text style="font-size: 10px; font-family: 'Arial', 'Microsoft YaHei', 'DejaVu Sans'; text-anchor: end; fill: #24172a" x="31.467188" y="198.460439" transform="rotate(-0 31.467188 198.460439)">20</text>
     </g>
    </g>
    <g id="ytick_4">
     <g id="line2d_23">
      <path d="M 38.467188 139.119831 
L 663.427188 139.119831 
" clip-path="url(#p11eaf890a0)" style="fill: none; stroke: #e9e3ea; stroke-width: 0.8; stroke-linecap: square"/>
     </g>
     <g id="line2d_24">
      <g>
       <use xlink:href="#m90319a0981" x="38.467188" y="139.119831" style="fill: #24172a; stroke: #24172a; stroke-width: 0.8"/>
      </g>
     </g>
     <g id="text_13">
      <text style="font-size: 10px; font-family: 'Arial', 'Microsoft YaHei', 'DejaVu Sans'; text-anchor: end; fill: #24172a" x="31.467188" y="142.698737" transform="rotate(-0 31.467188 142.698737)">30</text>
     </g>
    </g>
    <g id="ytick_5">
     <g id="line2d_25">
      <path d="M 38.467188 83.358129 
L 663.427188 83.358129 
" clip-path="url(#p11eaf890a0)" style="fill: none; stroke: #e9e3ea; stroke-width: 0.8; stroke-linecap: square"/>
     </g>
     <g id="line2d_26">
      <g>
       <use xlink:href="#m90319a0981" x="38.467188" y="83.358129" style="fill: #24172a; stroke: #24172a; stroke-width: 0.8"/>
      </g>
     </g>
     <g id="text_14">
      <text style="font-size: 10px; font-family: 'Arial', 'Microsoft YaHei', 'DejaVu Sans'; text-anchor: end; fill: #24172a" x="31.467188" y="86.937035" transform="rotate(-0 31.467188 86.937035)">40</text>
     </g>
    </g>
    <g id="text_15">
     <text style="font-size: 10px; font-family: 'Arial', 'Microsoft YaHei', 'DejaVu Sans'; text-anchor: middle; fill: #24172a" x="14.357813" y="175.364937" transform="rotate(-90 14.357813 175.364937)">Candidate works</text>
    </g>
   </g>
   <g id="line2d_27">
    <path d="M 66.87446 300.828767 
L 96.776853 306.404937 
L 156.581637 295.252597 
L 216.386422 300.828767 
L 246.288814 272.947916 
L 306.093599 289.676427 
L 335.995991 272.947916 
L 365.898384 256.219406 
L 395.800776 267.371746 
L 425.703168 278.524086 
L 455.605561 233.914725 
L 485.507953 172.576852 
L 515.410345 206.033874 
L 545.312738 139.119831 
L 575.21513 133.543661 
L 605.117522 44.324937 
L 635.019915 88.934299 
" clip-path="url(#p11eaf890a0)" style="fill: none; stroke: #642176; stroke-width: 2.2; stroke-linecap: square"/>
    <defs>
     <path id="m6c700f19dd" d="M 0 1.75 
C 0.464105 1.75 0.909265 1.565609 1.237437 1.237437 
C 1.565609 0.909265 1.75 0.464105 1.75 0 
C 1.75 -0.464105 1.565609 -0.909265 1.237437 -1.237437 
C 0.909265 -1.565609 0.464105 -1.75 0 -1.75 
C -0.464105 -1.75 -0.909265 -1.565609 -1.237437 -1.237437 
C -1.565609 -0.909265 -1.75 -0.464105 -1.75 0 
C -1.75 0.464105 -1.565609 0.909265 -1.237437 1.237437 
C -0.909265 1.565609 -0.464105 1.75 0 1.75 
z
" style="stroke: #642176"/>
    </defs>
    <g clip-path="url(#p11eaf890a0)">
     <use xlink:href="#m6c700f19dd" x="66.87446" y="300.828767" style="fill: #642176; stroke: #642176"/>
     <use xlink:href="#m6c700f19dd" x="96.776853" y="306.404937" style="fill: #642176; stroke: #642176"/>
     <use xlink:href="#m6c700f19dd" x="156.581637" y="295.252597" style="fill: #642176; stroke: #642176"/>
     <use xlink:href="#m6c700f19dd" x="216.386422" y="300.828767" style="fill: #642176; stroke: #642176"/>
     <use xlink:href="#m6c700f19dd" x="246.288814" y="272.947916" style="fill: #642176; stroke: #642176"/>
     <use xlink:href="#m6c700f19dd" x="306.093599" y="289.676427" style="fill: #642176; stroke: #642176"/>
     <use xlink:href="#m6c700f19dd" x="335.995991" y="272.947916" style="fill: #642176; stroke: #642176"/>
     <use xlink:href="#m6c700f19dd" x="365.898384" y="256.219406" style="fill: #642176; stroke: #642176"/>
     <use xlink:href="#m6c700f19dd" x="395.800776" y="267.371746" style="fill: #642176; stroke: #642176"/>
     <use xlink:href="#m6c700f19dd" x="425.703168" y="278.524086" style="fill: #642176; stroke: #642176"/>
     <use xlink:href="#m6c700f19dd" x="455.605561" y="233.914725" style="fill: #642176; stroke: #642176"/>
     <use xlink:href="#m6c700f19dd" x="485.507953" y="172.576852" style="fill: #642176; stroke: #642176"/>
     <use xlink:href="#m6c700f19dd" x="515.410345" y="206.033874" style="fill: #642176; stroke: #642176"/>
     <use xlink:href="#m6c700f19dd" x="545.312738" y="139.119831" style="fill: #642176; stroke: #642176"/>
     <use xlink:href="#m6c700f19dd" x="575.21513" y="133.543661" style="fill: #642176; stroke: #642176"/>
     <use xlink:href="#m6c700f19dd" x="605.117522" y="44.324937" style="fill: #642176; stroke: #642176"/>
     <use xlink:href="#m6c700f19dd" x="635.019915" y="88.934299" style="fill: #642176; stroke: #642176"/>
    </g>
   </g>
   <g id="line2d_28">
    <path d="M 66.87446 306.404937 
L 96.776853 306.404937 
L 156.581637 306.404937 
L 216.386422 306.404937 
L 246.288814 295.252597 
L 306.093599 300.828767 
L 335.995991 300.828767 
L 365.898384 300.828767 
L 395.800776 300.828767 
L 425.703168 300.828767 
L 455.605561 300.828767 
L 485.507953 289.676427 
L 515.410345 295.252597 
L 545.312738 295.252597 
L 575.21513 284.100257 
L 605.117522 284.100257 
L 635.019915 267.371746 
" clip-path="url(#p11eaf890a0)" style="fill: none; stroke: #c07a35; stroke-width: 2.2; stroke-linecap: square"/>
    <defs>
     <path id="m2214908cd9" d="M 0 1.75 
C 0.464105 1.75 0.909265 1.565609 1.237437 1.237437 
C 1.565609 0.909265 1.75 0.464105 1.75 0 
C 1.75 -0.464105 1.565609 -0.909265 1.237437 -1.237437 
C 0.909265 -1.565609 0.464105 -1.75 0 -1.75 
C -0.464105 -1.75 -0.909265 -1.565609 -1.237437 -1.237437 
C -1.565609 -0.909265 -1.75 -0.464105 -1.75 0 
C -1.75 0.464105 -1.565609 0.909265 -1.237437 1.237437 
C -0.909265 1.565609 -0.464105 1.75 0 1.75 
z
" style="stroke: #c07a35"/>
    </defs>
    <g clip-path="url(#p11eaf890a0)">
     <use xlink:href="#m2214908cd9" x="66.87446" y="306.404937" style="fill: #c07a35; stroke: #c07a35"/>
     <use xlink:href="#m2214908cd9" x="96.776853" y="306.404937" style="fill: #c07a35; stroke: #c07a35"/>
     <use xlink:href="#m2214908cd9" x="156.581637" y="306.404937" style="fill: #c07a35; stroke: #c07a35"/>
     <use xlink:href="#m2214908cd9" x="216.386422" y="306.404937" style="fill: #c07a35; stroke: #c07a35"/>
     <use xlink:href="#m2214908cd9" x="246.288814" y="295.252597" style="fill: #c07a35; stroke: #c07a35"/>
     <use xlink:href="#m2214908cd9" x="306.093599" y="300.828767" style="fill: #c07a35; stroke: #c07a35"/>
     <use xlink:href="#m2214908cd9" x="335.995991" y="300.828767" style="fill: #c07a35; stroke: #c07a35"/>
     <use xlink:href="#m2214908cd9" x="365.898384" y="300.828767" style="fill: #c07a35; stroke: #c07a35"/>
     <use xlink:href="#m2214908cd9" x="395.800776" y="300.828767" style="fill: #c07a35; stroke: #c07a35"/>
     <use xlink:href="#m2214908cd9" x="425.703168" y="300.828767" style="fill: #c07a35; stroke: #c07a35"/>
     <use xlink:href="#m2214908cd9" x="455.605561" y="300.828767" style="fill: #c07a35; stroke: #c07a35"/>
     <use xlink:href="#m2214908cd9" x="485.507953" y="289.676427" style="fill: #c07a35; stroke: #c07a35"/>
     <use xlink:href="#m2214908cd9" x="515.410345" y="295.252597" style="fill: #c07a35; stroke: #c07a35"/>
     <use xlink:href="#m2214908cd9" x="545.312738" y="295.252597" style="fill: #c07a35; stroke: #c07a35"/>
     <use xlink:href="#m2214908cd9" x="575.21513" y="284.100257" style="fill: #c07a35; stroke: #c07a35"/>
     <use xlink:href="#m2214908cd9" x="605.117522" y="284.100257" style="fill: #c07a35; stroke: #c07a35"/>
     <use xlink:href="#m2214908cd9" x="635.019915" y="267.371746" style="fill: #c07a35; stroke: #c07a35"/>
    </g>
   </g>
   <g id="line2d_29">
    <path d="M 66.87446 306.404937 
L 96.776853 300.828767 
L 156.581637 295.252597 
L 216.386422 300.828767 
L 246.288814 300.828767 
L 306.093599 284.100257 
L 335.995991 295.252597 
L 365.898384 300.828767 
L 395.800776 300.828767 
L 425.703168 295.252597 
L 455.605561 295.252597 
L 485.507953 289.676427 
L 515.410345 278.524086 
L 545.312738 267.371746 
L 575.21513 261.795576 
L 605.117522 278.524086 
L 635.019915 278.524086 
" clip-path="url(#p11eaf890a0)" style="fill: none; stroke: #2f8a70; stroke-width: 2.2; stroke-linecap: square"/>
    <defs>
     <path id="m799a7af5d1" d="M 0 1.75 
C 0.464105 1.75 0.909265 1.565609 1.237437 1.237437 
C 1.565609 0.909265 1.75 0.464105 1.75 0 
C 1.75 -0.464105 1.565609 -0.909265 1.237437 -1.237437 
C 0.909265 -1.565609 0.464105 -1.75 0 -1.75 
C -0.464105 -1.75 -0.909265 -1.565609 -1.237437 -1.237437 
C -1.565609 -0.909265 -1.75 -0.464105 -1.75 0 
C -1.75 0.464105 -1.565609 0.909265 -1.237437 1.237437 
C -0.909265 1.565609 -0.464105 1.75 0 1.75 
z
" style="stroke: #2f8a70"/>
    </defs>
    <g clip-path="url(#p11eaf890a0)">
     <use xlink:href="#m799a7af5d1" x="66.87446" y="306.404937" style="fill: #2f8a70; stroke: #2f8a70"/>
     <use xlink:href="#m799a7af5d1" x="96.776853" y="300.828767" style="fill: #2f8a70; stroke: #2f8a70"/>
     <use xlink:href="#m799a7af5d1" x="156.581637" y="295.252597" style="fill: #2f8a70; stroke: #2f8a70"/>
     <use xlink:href="#m799a7af5d1" x="216.386422" y="300.828767" style="fill: #2f8a70; stroke: #2f8a70"/>
     <use xlink:href="#m799a7af5d1" x="246.288814" y="300.828767" style="fill: #2f8a70; stroke: #2f8a70"/>
     <use xlink:href="#m799a7af5d1" x="306.093599" y="284.100257" style="fill: #2f8a70; stroke: #2f8a70"/>
     <use xlink:href="#m799a7af5d1" x="335.995991" y="295.252597" style="fill: #2f8a70; stroke: #2f8a70"/>
     <use xlink:href="#m799a7af5d1" x="365.898384" y="300.828767" style="fill: #2f8a70; stroke: #2f8a70"/>
     <use xlink:href="#m799a7af5d1" x="395.800776" y="300.828767" style="fill: #2f8a70; stroke: #2f8a70"/>
     <use xlink:href="#m799a7af5d1" x="425.703168" y="295.252597" style="fill: #2f8a70; stroke: #2f8a70"/>
     <use xlink:href="#m799a7af5d1" x="455.605561" y="295.252597" style="fill: #2f8a70; stroke: #2f8a70"/>
     <use xlink:href="#m799a7af5d1" x="485.507953" y="289.676427" style="fill: #2f8a70; stroke: #2f8a70"/>
     <use xlink:href="#m799a7af5d1" x="515.410345" y="278.524086" style="fill: #2f8a70; stroke: #2f8a70"/>
     <use xlink:href="#m799a7af5d1" x="545.312738" y="267.371746" style="fill: #2f8a70; stroke: #2f8a70"/>
     <use xlink:href="#m799a7af5d1" x="575.21513" y="261.795576" style="fill: #2f8a70; stroke: #2f8a70"/>
     <use xlink:href="#m799a7af5d1" x="605.117522" y="278.524086" style="fill: #2f8a70; stroke: #2f8a70"/>
     <use xlink:href="#m799a7af5d1" x="635.019915" y="278.524086" style="fill: #2f8a70; stroke: #2f8a70"/>
    </g>
   </g>
   <g id="patch_3">
    <path d="M 38.467188 319.508937 
L 38.467188 31.220937 
" style="fill: none; stroke: #e9e3ea; stroke-width: 0.8; stroke-linejoin: miter; stroke-linecap: square"/>
   </g>
   <g id="patch_4">
    <path d="M 38.467188 319.508937 
L 663.427188 319.508937 
" style="fill: none; stroke: #e9e3ea; stroke-width: 0.8; stroke-linejoin: miter; stroke-linecap: square"/>
   </g>
   <g id="text_16">
    <text style="font-size: 8px; font-family: 'Arial', 'Microsoft YaHei', 'DejaVu Sans'; text-anchor: start; fill: #746b79" x="38.467188" y="377.224527" transform="rotate(-0 38.467188 377.224527)">2026 is incomplete through 15 Aug 2026; curves describe a frozen public-index title screen, not true publication incidence.</text>
   </g>
   <g id="text_17">
    <text style="font-weight: 700; font-size: 14px; font-family: 'Arial', 'Microsoft YaHei', 'DejaVu Sans'; text-anchor: start; fill: #24172a" x="38.467188" y="17.220937" transform="rotate(-0 38.467188 17.220937)">Annual distribution of title-level candidates in clinical detection and intervention</text>
   </g>
   <g id="legend_1">
    <g id="line2d_30">
     <path d="M 45.667188 41.370937 
L 53.667188 41.370937 
L 61.667188 41.370937 
" style="fill: none; stroke: #642176; stroke-width: 2.2; stroke-linecap: square"/>
     <g>
      <use xlink:href="#m6c700f19dd" x="53.667188" y="41.370937" style="fill: #642176; stroke: #642176"/>
     </g>
    </g>
    <g id="text_18">
     <text style="font-size: 8px; font-family: 'Arial', 'Microsoft YaHei', 'DejaVu Sans'; text-anchor: start" x="68.067188" y="44.170937" transform="rotate(-0 68.067188 44.170937)">1.1 Active observational sensing</text>
    </g>
    <g id="line2d_31">
     <path d="M 45.667188 52.804687 
L 53.667188 52.804687 
L 61.667188 52.804687 
" style="fill: none; stroke: #c07a35; stroke-width: 2.2; stroke-linecap: square"/>
     <g>
      <use xlink:href="#m2214908cd9" x="53.667188" y="52.804687" style="fill: #c07a35; stroke: #c07a35"/>
     </g>
    </g>
    <g id="text_19">
     <text style="font-size: 8px; font-family: 'Arial', 'Microsoft YaHei', 'DejaVu Sans'; text-anchor: start" x="68.067188" y="55.604687" transform="rotate(-0 68.067188 55.604687)">1.2 Response-based interactive diagnosis</text>
    </g>
    <g id="line2d_32">
     <path d="M 45.667188 64.312187 
L 53.667188 64.312187 
L 61.667188 64.312187 
" style="fill: none; stroke: #2f8a70; stroke-width: 2.2; stroke-linecap: square"/>
     <g>
      <use xlink:href="#m799a7af5d1" x="53.667188" y="64.312187" style="fill: #2f8a70; stroke: #2f8a70"/>
     </g>
    </g>
    <g id="text_20">
     <text style="font-size: 8px; font-family: 'Arial', 'Microsoft YaHei', 'DejaVu Sans'; text-anchor: start" x="68.067188" y="67.112187" transform="rotate(-0 68.067188 67.112187)">1.3 Sample-based interactive diagnosis</text>
    </g>
   </g>
  </g>
 </g>
 <defs>
  <clipPath id="p11eaf890a0">
   <rect x="38.467188" y="31.220937" width="624.96" height="288.288"/>
  </clipPath>
 </defs>
</svg>
